PathFileType	4	(X/Y/Z)	D:\TRACE\v60_Jaco2_6-2-23\BothDRS_Motion1_7-v60.trc
DataRate	CameraRate	NumFrames	NumMarkers	Units	OrigDataRate	OrigDataStartFrame	OrigNumFrames
100.00	100.00	      28	9	mm	100.00	4688	      7500
Frame#	Time	front left toe			Front right toe			aft left toe			aft right toe			Arm			FL body			FR body			AL Body			AR Body			
		X1	Y1	Z1	X2	Y2	Z2	X3	Y3	Z3	X4	Y4	Z4	X5	Y5	Z5	X6	Y6	Z6	X7	Y7	Z7	X8	Y8	Z8	X9	Y9	Z9	

4688	46.870	-117.51090	12.97909	-196.94513	240.15477	6.27733	-222.56157	-115.31562	26.43423	419.49368	298.52148	31.86700	399.84125	116.81692	1120.21228	-633.13409	-24.48494	565.80170	-349.89825	135.85979	563.21259	-358.60577	28.07540	574.89081	593.68378	185.12338	566.84015	587.51776	
4689	46.880	-119.29659	12.51034	-198.67778	239.71999	6.02581	-222.59424	-115.45583	26.87187	419.54053	298.36069	32.13499	400.21674	116.76247	1120.03027	-633.07233	-23.86270	565.42053	-349.14700	136.29971	563.11584	-358.14642	29.10404	575.98029	594.07690	186.10545	568.81830	587.81305	
4690	46.890	-119.44130	9.36713	-198.81096	239.12239	6.43667	-221.95937	-115.68158	27.50555	419.70145	297.64130	32.01412	400.17090	116.79839	1119.83203	-633.20868	-23.50006	565.36145	-348.56726	136.18718	563.36322	-357.50955	29.54591	577.36145	595.20105	186.43065	569.79016	588.34686	
4691	46.900	-120.61982	10.38945	-198.08122	238.75845	7.27654	-222.51564	-116.04777	28.55383	419.83618	296.84760	31.54111	401.69763	116.53791	1119.63416	-633.96381	-23.06290	567.03198	-348.16074	136.53262	564.66644	-357.05106	29.97990	577.99670	595.83710	186.77094	570.47046	588.94769	
4692	46.910	-120.17232	10.31466	-197.76364	236.36369	10.57621	-222.12596	-115.40520	31.12556	418.74084	296.47284	31.06123	400.68002	116.24234	1119.79688	-634.15820	-22.89180	568.90466	-347.98981	137.38820	566.31354	-357.18234	30.16216	577.94928	595.97931	187.15082	570.45020	589.20807	
4693	46.920	-120.53973	10.43184	-198.22029	233.60968	15.08114	-218.57257	-112.05447	33.91119	420.88507	296.38016	30.96074	400.49728	115.99965	1120.78442	-633.01508	-22.67422	569.94281	-348.28793	137.05659	567.38153	-357.07803	30.27171	577.71344	595.83527	187.53305	570.42151	589.08813	
4694	46.930	-121.32021	10.32936	-199.02109	231.47099	22.34467	-215.55388	-106.72948	41.15175	422.45319	296.04468	31.09571	400.22705	116.40148	1123.42468	-631.95966	-22.89423	570.44653	-348.51340	136.87373	567.70410	-357.40714	30.69962	577.86530	595.19531	187.86745	570.50891	588.62311	
4695	46.940	-121.62224	9.17381	-198.58182	230.60188	31.70739	-214.50162	-103.92857	50.62474	422.19150	295.51657	31.26731	400.09793	117.79369	1126.20605	-631.04346	-23.14986	570.34448	-348.63745	136.63457	567.34387	-357.54718	30.54865	578.22473	594.91534	188.14957	570.62817	588.39728	
4696	46.950	-122.57075	9.15416	-198.71332	229.97133	43.63186	-215.54709	-102.68848	62.02462	421.67902	294.70944	30.90119	400.08017	118.65332	1128.08899	-630.84198	-23.62219	570.20685	-348.68527	136.08363	566.90747	-357.63147	31.14392	578.23853	594.96887	188.85754	570.55157	588.22784	
4697	46.960	-123.72047	9.86091	-198.17525	231.33554	56.02811	-216.87889	-103.46071	75.03653	420.80417	294.30377	30.91904	400.19095	119.60190	1128.11658	-630.81342	-24.43810	569.98993	-348.33167	135.41669	567.01953	-358.05844	31.73153	578.03192	594.94446	189.46304	570.21869	588.15936	
4698	46.970	-123.51920	9.23871	-198.34624	232.50220	68.93200	-218.69160	-104.42741	87.10046	420.27319	294.00537	30.67647	399.90887	120.16119	1126.93176	-631.13055	-25.26311	570.05933	-348.37827	134.86966	567.05640	-358.20297	32.77196	577.46643	595.40131	190.23749	569.88385	588.07800	
4699	46.980	-124.14922	9.02051	-198.45332	234.95879	81.77267	-220.81548	-105.39496	100.54269	419.17624	293.42426	30.72529	400.18057	119.53430	1125.40735	-631.61029	-24.47340	569.72571	-347.79922	134.56325	566.83148	-357.95642	33.34270	577.20026	595.36255	191.58263	569.58905	587.92389	
4700	46.990	-124.87563	8.72649	-198.48877	236.77707	93.82394	-222.41896	-104.47097	112.41937	418.84763	293.26401	31.03945	400.07587	118.07600	1124.16187	-632.47742	-24.92262	569.57214	-347.84900	134.09650	566.02692	-358.07587	33.61863	577.22455	595.27448	191.94983	569.16162	587.88763	
4701	47.000	-125.77805	8.60847	-198.32558	238.08218	105.53552	-223.28957	-102.57686	123.99181	418.41232	292.58212	31.23076	400.02158	117.07802	1123.23462	-633.24884	-25.14273	569.01459	-347.85345	134.21771	565.45172	-358.73203	33.74047	577.44116	594.79211	191.42926	568.96692	587.78760	
4702	47.010	-126.14366	8.53542	-198.17532	238.64674	116.29046	-224.16603	-100.55484	134.56082	418.36783	291.77045	31.10002	399.84613	116.05595	1122.14124	-634.16486	-25.69854	568.29529	-347.88464	134.20535	564.83710	-358.51950	34.37944	577.90436	595.09192	191.54062	569.32928	587.52887	
4703	47.020	-126.68716	8.24800	-198.23074	238.60692	125.66483	-224.74420	-98.36440	143.90227	418.33206	291.35754	31.16224	399.82037	115.26777	1120.92542	-634.86243	-26.17474	567.88824	-347.92850	133.34517	563.38586	-358.22931	34.57516	578.35193	595.01788	191.89764	570.05432	588.06641	
4704	47.030	-127.21385	8.41112	-198.29173	239.52554	132.07870	-224.58211	-98.85877	153.33478	417.60773	290.88004	31.27954	399.80844	115.24049	1119.83875	-635.52606	-27.35673	566.86169	-348.13806	133.27129	562.90063	-358.66122	35.09824	578.97577	594.95648	192.41628	570.55273	587.83929	
4705	47.040	-128.00035	8.33823	-198.32497	241.00328	136.12692	-224.79024	-98.23189	159.54044	417.72479	290.37445	31.36459	399.68594	115.70507	1118.47424	-636.48547	-27.63993	566.13751	-348.09241	132.24846	561.92676	-358.79803	35.54369	579.57159	594.89191	192.72141	570.62683	586.70636	
4706	47.050	-128.85139	7.91578	-198.04128	242.58807	138.00328	-224.88248	-96.69401	161.48615	418.40170	289.51746	31.15067	399.60437	115.48663	1117.19202	-637.59766	-28.50932	565.40735	-347.96640	131.24429	561.07770	-358.66486	36.14812	579.94189	594.81085	194.15602	571.30890	586.69763	
4707	47.060	-129.61620	7.76594	-198.07002	244.33759	136.92693	-224.83765	-95.73058	161.21370	419.40134	288.96930	31.22599	399.56775	115.76260	1115.55981	-638.45001	-29.17626	564.77075	-347.86148	130.69574	560.35913	-358.88800	36.73559	580.67328	594.75470	193.91182	571.71033	586.38000	
4708	47.070	-130.23683	7.75792	-198.06696	244.97646	133.66553	-225.14894	-94.09074	158.12982	420.39963	288.28061	31.55371	399.49887	115.17602	1114.35864	-639.42798	-29.59437	564.36053	-347.91437	129.68542	559.84503	-358.95203	36.93994	581.46484	594.46771	194.25531	572.28149	586.11847	
4709	47.080	-130.89015	7.88015	-198.01486	245.59859	128.91418	-225.80615	-91.47839	154.13358	421.26907	287.86697	31.70305	399.45389	114.19499	1113.49634	-640.47540	-30.25731	564.14124	-347.98465	129.88170	559.50208	-359.80347	37.48884	582.01630	594.24414	194.61002	572.78613	585.93866	
4710	47.090	-131.30539	7.64442	-198.02071	245.12311	122.84618	-226.64435	-89.43602	149.06544	422.01419	287.03546	31.64211	399.35114	113.56611	1112.89050	-641.46741	-31.04649	564.15448	-348.40933	129.39583	558.88263	-360.09650	38.06151	582.66699	593.95129	196.09406	573.65686	586.11353	
4711	47.100	-132.19769	7.61570	-197.88773	244.78503	116.20970	-227.82928	-88.52037	143.37956	422.26147	286.38809	31.63910	399.24054	112.74194	1112.14966	-642.28864	-31.55042	563.77863	-348.58951	129.02844	558.45789	-360.46887	38.46495	582.94690	593.61786	195.69830	573.52203	584.78589	
4712	47.110	-132.93774	7.46686	-197.89822	245.33508	108.37479	-229.34001	-87.39160	136.27003	421.85770	285.72751	31.51996	399.10693	112.49696	1111.53857	-642.74634	-31.90164	563.31726	-348.71677	128.21597	558.19891	-360.85150	39.03910	583.38885	593.31049	196.06802	573.72180	584.51373	
4713	47.120	-133.87532	7.66972	-197.86346	246.74422	100.09359	-230.79982	-85.20484	127.72232	421.27258	285.32498	31.43274	398.97372	112.13926	1111.32483	-643.54688	-32.53242	563.23975	-349.00064	127.52018	557.78778	-361.25607	39.41025	583.92706	592.87665	196.71461	574.32800	584.75922	
4714	47.130	-134.31181	7.61292	-197.94547	247.96140	91.85989	-232.72501	-84.29397	119.13581	420.00974	284.06079	31.39489	398.71719	111.86823	1111.06555	-644.40918	-33.23814	563.21484	-349.40332	126.70739	557.62054	-362.28839	40.05051	584.28113	592.45435	197.37267	574.53668	584.26672	
4715	47.140	-135.29289	7.68655	-198.06996	249.18245	83.40027	-235.11456	-82.28221	109.83978	418.98557	283.59195	31.59921	398.63336	111.62634	1110.73303	-645.22833	-33.40920	563.18817	-349.66211	126.21196	557.36053	-362.56705	40.71530	584.45154	591.88104	199.06227	574.41302	582.70142	
